<mxfile host="app.diagrams.net" modified="2023-05-17T08:48:41.169Z" agent="Mozilla/5.0 (Windows NT 10.0; Win64; x64) AppleWebKit/537.36 (KHTML, like Gecko) Chrome/113.0.0.0 Safari/537.36" etag="C9pjPY_ZqXB2ghOliZSn" version="21.3.2" type="device">
  <diagram name="Page-1" id="NDewDQXh8GJ2ohnPGecQ">
    <mxGraphModel dx="1764" dy="847" grid="1" gridSize="10" guides="1" tooltips="1" connect="1" arrows="1" fold="1" page="1" pageScale="1" pageWidth="400" pageHeight="300" math="0" shadow="0">
      <root>
        <mxCell id="0" />
        <mxCell id="1" parent="0" />
        <mxCell id="YE2acT_Aik6SvZDj6w7w-6" value="" style="endArrow=none;html=1;rounded=0;" parent="1" edge="1">
          <mxGeometry width="50" height="50" relative="1" as="geometry">
            <mxPoint x="40" y="80" as="sourcePoint" />
            <mxPoint x="89" y="160" as="targetPoint" />
          </mxGeometry>
        </mxCell>
        <mxCell id="YE2acT_Aik6SvZDj6w7w-9" value="" style="endArrow=none;html=1;rounded=0;" parent="1" edge="1">
          <mxGeometry width="50" height="50" relative="1" as="geometry">
            <mxPoint x="90" y="160" as="sourcePoint" />
            <mxPoint x="129" y="79" as="targetPoint" />
          </mxGeometry>
        </mxCell>
        <mxCell id="YE2acT_Aik6SvZDj6w7w-12" value="" style="endArrow=none;html=1;rounded=0;" parent="1" edge="1">
          <mxGeometry width="50" height="50" relative="1" as="geometry">
            <mxPoint x="130" y="80" as="sourcePoint" />
            <mxPoint x="169" y="100" as="targetPoint" />
          </mxGeometry>
        </mxCell>
        <mxCell id="YE2acT_Aik6SvZDj6w7w-13" value="" style="endArrow=none;html=1;rounded=0;" parent="1" edge="1">
          <mxGeometry width="50" height="50" relative="1" as="geometry">
            <mxPoint x="89" y="160" as="sourcePoint" />
            <mxPoint x="129" y="200" as="targetPoint" />
          </mxGeometry>
        </mxCell>
        <mxCell id="YE2acT_Aik6SvZDj6w7w-15" value="" style="endArrow=none;html=1;rounded=0;" parent="1" edge="1">
          <mxGeometry width="50" height="50" relative="1" as="geometry">
            <mxPoint x="130" y="200" as="sourcePoint" />
            <mxPoint x="169" y="240" as="targetPoint" />
          </mxGeometry>
        </mxCell>
        <mxCell id="YE2acT_Aik6SvZDj6w7w-17" value="" style="endArrow=none;html=1;rounded=0;" parent="1" edge="1">
          <mxGeometry width="50" height="50" relative="1" as="geometry">
            <mxPoint x="170" y="240" as="sourcePoint" />
            <mxPoint x="211" y="220" as="targetPoint" />
          </mxGeometry>
        </mxCell>
        <mxCell id="YE2acT_Aik6SvZDj6w7w-18" value="" style="endArrow=none;html=1;rounded=0;" parent="1" edge="1">
          <mxGeometry width="50" height="50" relative="1" as="geometry">
            <mxPoint x="170" y="240" as="sourcePoint" />
            <mxPoint x="211" y="260" as="targetPoint" />
          </mxGeometry>
        </mxCell>
        <mxCell id="YE2acT_Aik6SvZDj6w7w-19" value="" style="endArrow=none;html=1;rounded=0;" parent="1" edge="1">
          <mxGeometry width="50" height="50" relative="1" as="geometry">
            <mxPoint x="129" y="200" as="sourcePoint" />
            <mxPoint x="169" y="160" as="targetPoint" />
          </mxGeometry>
        </mxCell>
        <mxCell id="YE2acT_Aik6SvZDj6w7w-21" value="" style="endArrow=none;html=1;rounded=0;" parent="1" edge="1">
          <mxGeometry width="50" height="50" relative="1" as="geometry">
            <mxPoint x="170" y="160" as="sourcePoint" />
            <mxPoint x="211" y="140" as="targetPoint" />
          </mxGeometry>
        </mxCell>
        <mxCell id="YE2acT_Aik6SvZDj6w7w-22" value="" style="endArrow=none;html=1;rounded=0;" parent="1" edge="1">
          <mxGeometry width="50" height="50" relative="1" as="geometry">
            <mxPoint x="170" y="160" as="sourcePoint" />
            <mxPoint x="211" y="182" as="targetPoint" />
          </mxGeometry>
        </mxCell>
        <UserObject label="&lt;font style=&quot;font-size: 32px;&quot;&gt;Spurious&lt;/font&gt;" placeholders="1" name="Variable" id="YE2acT_Aik6SvZDj6w7w-23">
          <mxCell style="text;html=1;strokeColor=none;fillColor=none;align=left;verticalAlign=middle;whiteSpace=wrap;overflow=hidden;" parent="1" vertex="1">
            <mxGeometry x="91" width="132" height="40" as="geometry" />
          </mxCell>
        </UserObject>
        <UserObject label="&lt;font style=&quot;font-size: 32px;&quot;&gt;1 Color&lt;/font&gt;" placeholders="1" name="Variable" id="YE2acT_Aik6SvZDj6w7w-24">
          <mxCell style="text;html=1;strokeColor=none;fillColor=none;align=left;verticalAlign=middle;whiteSpace=wrap;overflow=hidden;" parent="1" vertex="1">
            <mxGeometry x="171" y="40" width="120" height="40" as="geometry" />
          </mxCell>
        </UserObject>
        <UserObject label="&lt;font style=&quot;font-size: 32px;&quot;&gt;1 Number&lt;/font&gt;" placeholders="1" name="Variable" id="YE2acT_Aik6SvZDj6w7w-27">
          <mxCell style="text;html=1;strokeColor=none;fillColor=none;align=left;verticalAlign=middle;whiteSpace=wrap;overflow=hidden;" parent="1" vertex="1">
            <mxGeometry x="171" y="82" width="150" height="40" as="geometry" />
          </mxCell>
        </UserObject>
        <UserObject label="&lt;font style=&quot;font-size: 32px;&quot;&gt;7 Color&lt;/font&gt;" placeholders="1" name="Variable" id="YE2acT_Aik6SvZDj6w7w-28">
          <mxCell style="text;html=1;strokeColor=none;fillColor=none;align=left;verticalAlign=middle;whiteSpace=wrap;overflow=hidden;" parent="1" vertex="1">
            <mxGeometry x="211" y="122" width="130" height="40" as="geometry" />
          </mxCell>
        </UserObject>
        <UserObject label="&lt;font style=&quot;font-size: 32px;&quot;&gt;7 Number&lt;/font&gt;" placeholders="1" name="Variable" id="YE2acT_Aik6SvZDj6w7w-29">
          <mxCell style="text;html=1;strokeColor=none;fillColor=none;align=left;verticalAlign=middle;whiteSpace=wrap;overflow=hidden;" parent="1" vertex="1">
            <mxGeometry x="211" y="166" width="160" height="38" as="geometry" />
          </mxCell>
        </UserObject>
        <UserObject label="&lt;font style=&quot;font-size: 32px;&quot;&gt;3 Color&lt;/font&gt;" placeholders="1" name="Variable" id="YE2acT_Aik6SvZDj6w7w-30">
          <mxCell style="text;html=1;strokeColor=none;fillColor=none;align=left;verticalAlign=middle;whiteSpace=wrap;overflow=hidden;" parent="1" vertex="1">
            <mxGeometry x="211" y="202" width="130" height="40" as="geometry" />
          </mxCell>
        </UserObject>
        <UserObject label="&lt;font style=&quot;font-size: 32px;&quot;&gt;3 Number&lt;/font&gt;" placeholders="1" name="Variable" id="YE2acT_Aik6SvZDj6w7w-31">
          <mxCell style="text;html=1;strokeColor=none;fillColor=none;align=left;verticalAlign=middle;whiteSpace=wrap;overflow=hidden;" parent="1" vertex="1">
            <mxGeometry x="211" y="242" width="170" height="40" as="geometry" />
          </mxCell>
        </UserObject>
        <mxCell id="_fNS7k1q_upccFoYhTpZ-1" value="" style="endArrow=none;html=1;rounded=0;" parent="1" edge="1">
          <mxGeometry width="50" height="50" relative="1" as="geometry">
            <mxPoint x="129" y="80" as="sourcePoint" />
            <mxPoint x="169" y="60" as="targetPoint" />
          </mxGeometry>
        </mxCell>
        <mxCell id="_fNS7k1q_upccFoYhTpZ-2" value="" style="endArrow=none;html=1;rounded=0;" parent="1" edge="1">
          <mxGeometry width="50" height="50" relative="1" as="geometry">
            <mxPoint x="40" y="80" as="sourcePoint" />
            <mxPoint x="89" y="14.909999999999997" as="targetPoint" />
          </mxGeometry>
        </mxCell>
      </root>
    </mxGraphModel>
  </diagram>
</mxfile>
